<?xml version="1.0" encoding="utf-8"?>
<!-- Generator: Adobe Illustrator 25.4.1, SVG Export Plug-In . SVG Version: 6.00 Build 0)  -->
<svg version="1.0" id="katman_1" xmlns="http://www.w3.org/2000/svg" xmlns:xlink="http://www.w3.org/1999/xlink" x="0px" y="0px"
	 viewBox="0 0 800 600" style="enable-background:new 0 0 800 600;" xml:space="preserve">
<style type="text/css">
	.st0{fill:#1D1D1B;}
</style>
<path class="st0" d="M163.5,365.2c-13.8,0-27.5-0.5-41.2,0.1c-19.4,0.9-39.2-13.8-39.4-37.4c-0.2-19.7-0.2-39.5,0.4-59.2
	c0.5-17.5,17-33.3,34.4-33.5c20.2-0.3,40.4-0.3,60.6,0c16.9,0.2,32.9,15.4,34.4,32.2c0.3,3.3,0.5,6.6,0.5,9.9c0,27.8,0,55.6,0,83.5
	c0,4.4,0,4.4-4.3,4.4C193.7,365.2,178.6,365.2,163.5,365.2z M186.1,338.8c0.1-1.4,0.2-2.3,0.2-3.3c0-20.6,0-41.2,0-61.8
	c0-7.4-4.4-12.1-11.9-12.2c-17.6-0.1-35.2-0.1-52.8,0c-7.6,0-12.1,4.8-12.1,12.4c0,17.1,0.3,34.1-0.1,51.2
	c-0.2,8.8,5.2,13.9,13.9,13.8c19.7-0.2,39.4-0.1,59.2-0.1C183.5,338.8,184.7,338.8,186.1,338.8z"/>
<path class="st0" d="M331.9,365.2c-14,0-27.9-0.4-41.9,0.1c-18.4,0.7-38.7-13.2-38.9-38c-0.2-18.2-0.3-36.3,0-54.5
	c0.3-19.6,12.6-33.8,31.7-37.4c1.9-0.4,4-0.4,6-0.4c18,0,35.9,0.4,53.9-0.1c18.2-0.6,38.4,13.1,38.7,37.4
	c0.3,29.9,0.1,59.8,0.2,89.7c0,2.6-1,3.1-3.4,3.1C362.7,365.2,347.3,365.2,331.9,365.2z M354.6,338.8c0-1.6,0-2.7,0-3.8
	c0-20.4,0-40.8,0-61.1c0-7.8-4.5-12.4-12.4-12.4c-17.4-0.1-34.8-0.1-52.2,0c-7.8,0-12.3,4.7-12.3,12.5c0,16.9,0.3,33.9-0.1,50.8
	c-0.2,9.5,5.6,14.1,14,14c19.6-0.2,39.2-0.1,58.8-0.1C351.7,338.8,352.9,338.8,354.6,338.8z"/>
<path class="st0" d="M468.7,365.2c-15.2,0-30.4-0.1-45.6,0.1c-3.2,0-3.9-1-3.9-4c0.1-29.1,0-58.3,0.1-87.4
	c0.1-20.1,12.2-34.7,31.7-38.4c1.9-0.4,4-0.4,6-0.4c18,0,35.9,0.4,53.9-0.1c18.3-0.6,38.6,13.2,38.8,38.1c0.1,18.1,0.2,36.1,0,54.2
	c-0.3,19.7-12.5,34.1-31.8,37.6c-1.8,0.3-3.7,0.3-5.6,0.3C497.7,365.2,483.2,365.2,468.7,365.2z M446.1,338.4
	c0.8,0.2,1.1,0.4,1.4,0.4c21.3,0,42.5,0.1,63.8,0c7.3-0.1,11.6-4.9,11.6-12.1c0-17.5,0-35,0-52.5c0-7.8-4.4-12.5-12.2-12.6
	c-17.5-0.1-35-0.1-52.5,0c-7.7,0-12.1,4.7-12.1,12.3c0,20.5,0,41,0,61.5C446.1,336.3,446.1,337.3,446.1,338.4z"/>
<path class="st0" d="M637.1,365.2c-15.2,0-30.4-0.1-45.6,0.1c-2.8,0-3.9-0.6-3.9-3.6c0.1-29.7-0.1-59.4,0.1-89.1
	c0.1-21.3,16.6-37.4,38-37.4c17.6,0,35.3,0.5,52.9-0.1c19.2-0.7,39.1,13.8,39.3,37.6c0.1,19.7,0.2,39.5-0.4,59.2
	c-0.5,17.5-17.3,33.1-34.9,33.5c-0.3,0-0.7,0-1,0C666.8,365.2,651.9,365.2,637.1,365.2z M614.6,338.4c0.7,0.2,0.9,0.3,1.1,0.3
	c21.4,0,42.8,0.1,64.1,0c7.2-0.1,11.5-5,11.5-12.3c0-17.4,0-34.8,0-52.2c0-8.2-4.5-12.7-12.7-12.8c-17.2,0-34.3-0.1-51.5,0
	c-8.2,0-12.6,4.5-12.6,12.8c0,20.3,0,40.5,0,60.8C614.4,336.2,614.5,337.3,614.6,338.4z"/>
<path class="st0" d="M186.3,209.2c0-1,0-2,0-3.1c0-14.9,0.1-29.9-0.1-44.8c0-3,0.8-4.1,3.9-3.9c6.5,0.2,13.1,0.2,19.6,0
	c2.4,0,3.4,0.6,3.4,3.1c-0.1,15.5,0,31,0,46.5c0,1.6-0.1,2.9-2.2,2.9c-7.7-0.1-15.5-0.1-23.2-0.1C187.3,209.7,187,209.4,186.3,209.2
	z"/>
<path class="st0" d="M446.1,417c0,7.6-0.1,15.3,0,22.9c0,2.2-0.6,3.2-3,3.1c-7-0.1-14-0.1-20.9,0c-2.2,0-2.9-0.8-2.9-2.9
	c0-15.6,0-31.2,0-46.8c0-2,0.7-2.8,2.7-2.8c7.1,0,14.2,0.1,21.3,0c2.1,0,2.9,0.8,2.9,2.9C446,401.3,446.1,409.2,446.1,417z"/>
<path class="st0" d="M614.4,391.2c0,1,0,2,0,3.1c0,14.9-0.1,29.9,0.1,44.8c0,3-0.8,4.1-3.9,3.9c-6.5-0.2-13.1-0.2-19.6,0
	c-2.4,0-3.4-0.6-3.3-3.1c0.1-15.5,0-31,0-46.5c0-1.6,0.1-2.9,2.2-2.9c7.8,0.1,15.5,0.1,23.2,0.1
	C613.4,390.7,613.7,390.9,614.4,391.2z"/>
</svg>
